STARTFONT 2.1
COMMENT
COMMENT Converted from OpenType font "london-buses-ibus.ttf" by "otf2bdf 3.0".
COMMENT
FONT -FreeType-London Buses iBus-Medium-R-Normal--33-320-75-75-P-134-ISO10646-1
SIZE 32 75 75
FONTBOUNDINGBOX 20 31 0 -7
STARTPROPERTIES 19
FOUNDRY "FreeType"
FAMILY_NAME "London Buses iBus"
WEIGHT_NAME "Medium"
SLANT "R"
SETWIDTH_NAME "Normal"
ADD_STYLE_NAME ""
PIXEL_SIZE 33
POINT_SIZE 320
RESOLUTION_X 75
RESOLUTION_Y 75
SPACING "P"
AVERAGE_WIDTH 134
CHARSET_REGISTRY "ISO10646"
CHARSET_ENCODING "1"
FONT_ASCENT 23
FONT_DESCENT 9
COPYRIGHT "Copyright Epalvosh 2023"
_OTF_FONTFILE "london-buses-ibus.ttf"
_OTF_PSNAME "LondonBusesiBus"
ENDPROPERTIES
CHARS 78
STARTCHAR 0020
ENCODING 32
SWIDTH 210 0
DWIDTH 7 0
BBX 0 0 0 0
BITMAP
ENDCHAR
STARTCHAR 0021
ENCODING 33
SWIDTH 210 0
DWIDTH 7 0
BBX 3 24 0 0
BITMAP
E0
E0
E0
00
E0
E0
E0
E0
E0
E0
00
E0
E0
E0
E0
E0
E0
00
00
00
00
E0
E0
E0
ENDCHAR
STARTCHAR 0026
ENCODING 38
SWIDTH 690 0
DWIDTH 23 0
BBX 20 24 0 0
BITMAP
01C000
01C000
01C000
000000
1C3800
1C3800
0C3800
01C060
01C070
01C070
000000
1DC070
1DC070
0DC060
E03B00
E03F80
E03B00
E03B00
E03F80
E03F00
000000
1DC070
1DC070
0DC060
ENDCHAR
STARTCHAR 0027
ENCODING 39
SWIDTH 300 0
DWIDTH 10 0
BBX 6 7 0 17
BITMAP
0C
1C
1C
00
E0
E0
E0
ENDCHAR
STARTCHAR 0028
ENCODING 40
SWIDTH 300 0
DWIDTH 10 0
BBX 6 27 0 -3
BITMAP
0C
1C
1C
00
E0
E0
E0
E0
E0
E0
00
E0
E0
E0
E0
E0
E0
E0
E0
E0
00
E0
E0
E0
0C
1C
1C
ENDCHAR
STARTCHAR 0029
ENCODING 41
SWIDTH 300 0
DWIDTH 10 0
BBX 6 27 0 -3
BITMAP
E0
E0
E0
00
1C
1C
0C
0C
1C
1C
00
1C
1C
0C
0C
1C
0C
0C
1C
1C
00
1C
1C
0C
E0
E0
E0
ENDCHAR
STARTCHAR 002A
ENCODING 42
SWIDTH 600 0
DWIDTH 20 0
BBX 17 20 0 0
BITMAP
01C000
01C000
01C000
E1C380
E1C380
E1C380
000000
1DF800
1DF800
0DF800
0DF800
1DF800
0DF800
E1C380
E1C380
E1C380
000000
01C000
01C000
01C000
ENDCHAR
STARTCHAR 002C
ENCODING 44
SWIDTH 300 0
DWIDTH 10 0
BBX 6 10 0 -7
BITMAP
1C
1C
0C
0C
1C
1C
00
E0
E0
E0
ENDCHAR
STARTCHAR 002D
ENCODING 45
SWIDTH 390 0
DWIDTH 13 0
BBX 10 3 0 7
BITMAP
FDC0
FDC0
ED80
ENDCHAR
STARTCHAR 002E
ENCODING 46
SWIDTH 210 0
DWIDTH 7 0
BBX 3 3 0 0
BITMAP
E0
E0
E0
ENDCHAR
STARTCHAR 002F
ENCODING 47
SWIDTH 510 0
DWIDTH 17 0
BBX 13 27 0 -3
BITMAP
0038
0038
0038
0000
0038
0038
0038
01C0
01C0
01C0
0000
01C0
01C0
01C0
0C00
1C00
0C00
0C00
1C00
1C00
0000
E000
E000
E000
E000
E000
E000
ENDCHAR
STARTCHAR 0030
ENCODING 48
SWIDTH 510 0
DWIDTH 17 0
BBX 13 24 0 0
BITMAP
0DC0
1DC0
1DC0
0000
E038
E038
E038
E038
E038
E038
0000
E038
E038
E038
E038
E038
E038
E038
E038
E038
0000
1DC0
1DC0
0DC0
ENDCHAR
STARTCHAR 0031
ENCODING 49
SWIDTH 390 0
DWIDTH 13 0
BBX 10 24 0 0
BITMAP
0C00
1C00
1C00
0000
FC00
FC00
EC00
0C00
1C00
1C00
0000
1C00
1C00
0C00
0C00
1C00
0C00
0C00
1C00
1C00
0000
FDC0
FDC0
ED80
ENDCHAR
STARTCHAR 0032
ENCODING 50
SWIDTH 510 0
DWIDTH 17 0
BBX 13 24 0 0
BITMAP
0DC0
1DC0
1DC0
0000
E038
E038
E038
0038
0038
0038
0000
01C0
01C0
01C0
0C00
1C00
0C00
E000
E000
E000
0000
FDF8
FDF8
EDF8
ENDCHAR
STARTCHAR 0033
ENCODING 51
SWIDTH 510 0
DWIDTH 17 0
BBX 13 24 0 0
BITMAP
0DC0
1DC0
1DC0
0000
E038
E038
E038
0038
0038
0038
0000
1DC0
1DC0
0DC0
0038
0038
0038
E038
E038
E038
0000
1DC0
1DC0
0DC0
ENDCHAR
STARTCHAR 0034
ENCODING 52
SWIDTH 600 0
DWIDTH 20 0
BBX 17 24 0 0
BITMAP
003800
003800
003800
000000
01F800
01F800
01F800
0C3800
1C3800
1C3800
000000
E03800
E03800
E03800
EDFB80
FDFB80
EDFB80
003800
003800
003800
000000
003800
003800
003800
ENDCHAR
STARTCHAR 0035
ENCODING 53
SWIDTH 510 0
DWIDTH 17 0
BBX 13 24 0 0
BITMAP
EDF8
FDF8
FDF8
0000
E000
E000
E000
EDC0
FDC0
FDC0
0000
0038
0038
0038
0038
0038
0038
E038
E038
E038
0000
1DC0
1DC0
0DC0
ENDCHAR
STARTCHAR 0036
ENCODING 54
SWIDTH 510 0
DWIDTH 17 0
BBX 13 24 0 0
BITMAP
0DC0
1DC0
1DC0
0000
E038
E038
E038
E000
E000
E000
0000
FDC0
FDC0
EDC0
E038
E038
E038
E038
E038
E038
0000
1DC0
1DC0
0DC0
ENDCHAR
STARTCHAR 0037
ENCODING 55
SWIDTH 510 0
DWIDTH 17 0
BBX 13 24 0 0
BITMAP
EDF8
FDF8
FDF8
0000
0038
0038
0038
01C0
01C0
01C0
0000
01C0
01C0
01C0
0C00
1C00
0C00
0C00
1C00
1C00
0000
1C00
1C00
0C00
ENDCHAR
STARTCHAR 0038
ENCODING 56
SWIDTH 510 0
DWIDTH 17 0
BBX 13 24 0 0
BITMAP
0DC0
1DC0
1DC0
0000
E038
E038
E038
E038
E038
E038
0000
1DC0
1DC0
0DC0
E038
E038
E038
E038
E038
E038
0000
1DC0
1DC0
0DC0
ENDCHAR
STARTCHAR 0039
ENCODING 57
SWIDTH 510 0
DWIDTH 17 0
BBX 13 24 0 0
BITMAP
0DC0
1DC0
1DC0
0000
E038
E038
E038
E038
E038
E038
0000
1DF8
1DF8
0DF8
0038
0038
0038
E038
E038
E038
0000
1DC0
1DC0
0DC0
ENDCHAR
STARTCHAR 003A
ENCODING 58
SWIDTH 210 0
DWIDTH 7 0
BBX 3 10 0 3
BITMAP
E0
E0
E0
00
00
00
00
E0
E0
E0
ENDCHAR
STARTCHAR 003C
ENCODING 60
SWIDTH 510 0
DWIDTH 17 0
BBX 13 23 0 -3
BITMAP
0038
0038
0038
01C0
01C0
01C0
0000
1C00
1C00
0C00
E000
E000
E000
0C00
1C00
1C00
0000
01C0
01C0
01C0
0038
0038
0038
ENDCHAR
STARTCHAR 003E
ENCODING 62
SWIDTH 510 0
DWIDTH 17 0
BBX 13 23 0 -3
BITMAP
E000
E000
E000
0C00
1C00
1C00
0000
01C0
01C0
01C0
0038
0038
0038
01C0
01C0
01C0
0000
1C00
1C00
0C00
E000
E000
E000
ENDCHAR
STARTCHAR 003F
ENCODING 63
SWIDTH 510 0
DWIDTH 17 0
BBX 13 24 0 0
BITMAP
0DC0
1DC0
1DC0
0000
E038
E038
E038
0038
0038
0038
0000
01C0
01C0
01C0
0C00
1C00
1C00
0000
0000
0000
0000
1C00
1C00
0C00
ENDCHAR
STARTCHAR 0041
ENCODING 65
SWIDTH 600 0
DWIDTH 20 0
BBX 17 24 0 0
BITMAP
01C000
01C000
01C000
000000
1C3800
1C3800
0C3800
E00380
E00380
E00380
000000
E00380
E00380
E00380
EDFB80
FDFB80
EDFB80
E00380
E00380
E00380
000000
E00380
E00380
E00380
ENDCHAR
STARTCHAR 0042
ENCODING 66
SWIDTH 600 0
DWIDTH 20 0
BBX 17 24 0 0
BITMAP
EDF800
FDF800
FDF800
000000
E00380
E00380
E00380
E00380
E00380
E00380
000000
FDF800
FDF800
EDF800
E00380
E00380
E00380
E00380
E00380
E00380
000000
FDF800
FDF800
EDF800
ENDCHAR
STARTCHAR 0043
ENCODING 67
SWIDTH 600 0
DWIDTH 20 0
BBX 17 24 0 0
BITMAP
01F800
01F800
01F800
000000
1C0380
1C0380
0C0380
E00000
E00000
E00000
000000
E00000
E00000
E00000
E00000
E00000
E00000
0C0380
1C0380
1C0380
000000
01F800
01F800
01F800
ENDCHAR
STARTCHAR 0044
ENCODING 68
SWIDTH 600 0
DWIDTH 20 0
BBX 17 24 0 0
BITMAP
EDC000
FDC000
FDC000
000000
E03800
E03800
E03800
E00380
E00380
E00380
000000
E00380
E00380
E00380
E00380
E00380
E00380
E03800
E03800
E03800
000000
FDC000
FDC000
EDC000
ENDCHAR
STARTCHAR 0045
ENCODING 69
SWIDTH 510 0
DWIDTH 17 0
BBX 13 24 0 0
BITMAP
EDF8
FDF8
FDF8
0000
E000
E000
E000
E000
E000
E000
0000
FDC0
FDC0
EDC0
E000
E000
E000
E000
E000
E000
0000
FDF8
FDF8
EDF8
ENDCHAR
STARTCHAR 0046
ENCODING 70
SWIDTH 600 0
DWIDTH 20 0
BBX 17 24 0 0
BITMAP
EDFB80
FDFB80
FDFB80
000000
E00000
E00000
E00000
E00000
E00000
E00000
000000
FDF800
FDF800
EDF800
E00000
E00000
E00000
E00000
E00000
E00000
000000
E00000
E00000
E00000
ENDCHAR
STARTCHAR 0047
ENCODING 71
SWIDTH 600 0
DWIDTH 20 0
BBX 17 24 0 0
BITMAP
0DF800
1DF800
1DF800
000000
E00380
E00380
E00380
E00000
E00000
E00000
000000
E03B80
E03B80
E03B80
E00380
E00380
E00380
E00380
E00380
E00380
000000
1DFB80
1DFB80
0DFB80
ENDCHAR
STARTCHAR 0048
ENCODING 72
SWIDTH 600 0
DWIDTH 20 0
BBX 17 24 0 0
BITMAP
E00380
E00380
E00380
000000
E00380
E00380
E00380
E00380
E00380
E00380
000000
FDFB80
FDFB80
EDFB80
E00380
E00380
E00380
E00380
E00380
E00380
000000
E00380
E00380
E00380
ENDCHAR
STARTCHAR 0049
ENCODING 73
SWIDTH 210 0
DWIDTH 7 0
BBX 3 24 0 0
BITMAP
E0
E0
E0
00
E0
E0
E0
E0
E0
E0
00
E0
E0
E0
E0
E0
E0
E0
E0
E0
00
E0
E0
E0
ENDCHAR
STARTCHAR 004A
ENCODING 74
SWIDTH 390 0
DWIDTH 13 0
BBX 10 24 0 0
BITMAP
0180
01C0
01C0
0000
01C0
01C0
0180
0180
01C0
01C0
0000
01C0
01C0
0180
01C0
01C0
01C0
0180
01C0
01C0
0000
FC00
FC00
EC00
ENDCHAR
STARTCHAR 004B
ENCODING 75
SWIDTH 600 0
DWIDTH 20 0
BBX 17 24 0 0
BITMAP
E00380
E00380
E00380
000000
E03800
E03800
E03800
E1C000
E1C000
E1C000
000000
FC0000
FC0000
EC0000
E1C000
E1C000
E1C000
E03800
E03800
E03800
000000
E00380
E00380
E00380
ENDCHAR
STARTCHAR 004C
ENCODING 76
SWIDTH 510 0
DWIDTH 17 0
BBX 13 24 0 0
BITMAP
E000
E000
E000
0000
E000
E000
E000
E000
E000
E000
0000
E000
E000
E000
E000
E000
E000
E000
E000
E000
0000
FDF8
FDF8
EDF8
ENDCHAR
STARTCHAR 004D
ENCODING 77
SWIDTH 600 0
DWIDTH 20 0
BBX 17 24 0 0
BITMAP
E00380
E00380
E00380
000000
FC3B80
FC3B80
EC3B80
E1C380
E1C380
E1C380
000000
E1C380
E1C380
E1C380
E00380
E00380
E00380
E00380
E00380
E00380
000000
E00380
E00380
E00380
ENDCHAR
STARTCHAR 004E
ENCODING 78
SWIDTH 600 0
DWIDTH 20 0
BBX 17 24 0 0
BITMAP
E00380
E00380
E00380
000000
FC0380
FC0380
EC0380
EC0380
FC0380
FC0380
000000
E1C380
E1C380
E1C380
E03B80
E03B80
E03B80
E03B80
E03B80
E03B80
000000
E00380
E00380
E00380
ENDCHAR
STARTCHAR 004F
ENCODING 79
SWIDTH 600 0
DWIDTH 20 0
BBX 17 24 0 0
BITMAP
0DF800
1DF800
1DF800
000000
E00380
E00380
E00380
E00380
E00380
E00380
000000
E00380
E00380
E00380
E00380
E00380
E00380
E00380
E00380
E00380
000000
1DF800
1DF800
0DF800
ENDCHAR
STARTCHAR 0050
ENCODING 80
SWIDTH 600 0
DWIDTH 20 0
BBX 17 24 0 0
BITMAP
EDF800
FDF800
FDF800
000000
E00380
E00380
E00380
E00380
E00380
E00380
000000
FDF800
FDF800
EDF800
E00000
E00000
E00000
E00000
E00000
E00000
000000
E00000
E00000
E00000
ENDCHAR
STARTCHAR 0051
ENCODING 81
SWIDTH 690 0
DWIDTH 23 0
BBX 20 27 0 -3
BITMAP
0DF800
1DF800
1DF800
000000
E00700
E00780
E00300
E00300
E00780
E00700
000000
E00700
E00780
E00300
E00300
E00780
E00300
E03B00
E03F80
E03F00
000000
1DFF00
1DFF80
0DFB00
000060
000070
000070
ENDCHAR
STARTCHAR 0052
ENCODING 82
SWIDTH 600 0
DWIDTH 20 0
BBX 17 24 0 0
BITMAP
EDF800
FDF800
FDF800
000000
E00380
E00380
E00380
E00380
E00380
E00380
000000
FDF800
FDF800
EDF800
E03800
E03800
E03800
E00380
E00380
E00380
000000
E00380
E00380
E00380
ENDCHAR
STARTCHAR 0053
ENCODING 83
SWIDTH 510 0
DWIDTH 17 0
BBX 13 24 0 0
BITMAP
0DC0
1DC0
1DC0
0000
E038
E038
E038
E000
E000
E000
0000
1DC0
1DC0
0DC0
0038
0038
0038
E038
E038
E038
0000
1DC0
1DC0
0DC0
ENDCHAR
STARTCHAR 0054
ENCODING 84
SWIDTH 600 0
DWIDTH 20 0
BBX 17 24 0 0
BITMAP
EDFB80
FDFB80
FDFB80
000000
01C000
01C000
01C000
01C000
01C000
01C000
000000
01C000
01C000
01C000
01C000
01C000
01C000
01C000
01C000
01C000
000000
01C000
01C000
01C000
ENDCHAR
STARTCHAR 0055
ENCODING 85
SWIDTH 600 0
DWIDTH 20 0
BBX 17 24 0 0
BITMAP
E00380
E00380
E00380
000000
E00380
E00380
E00380
E00380
E00380
E00380
000000
E00380
E00380
E00380
E00380
E00380
E00380
E00380
E00380
E00380
000000
1DF800
1DF800
0DF800
ENDCHAR
STARTCHAR 0056
ENCODING 86
SWIDTH 600 0
DWIDTH 20 0
BBX 17 24 0 0
BITMAP
E00380
E00380
E00380
000000
E00380
E00380
E00380
E00380
E00380
E00380
000000
E00380
E00380
E00380
E00380
E00380
E00380
0C3800
1C3800
1C3800
000000
01C000
01C000
01C000
ENDCHAR
STARTCHAR 0057
ENCODING 87
SWIDTH 600 0
DWIDTH 20 0
BBX 17 24 0 0
BITMAP
E00380
E00380
E00380
000000
E00380
E00380
E00380
E00380
E00380
E00380
000000
E1C380
E1C380
E1C380
E1C380
E1C380
E1C380
EC3B80
FC3B80
FC3B80
000000
E00380
E00380
E00380
ENDCHAR
STARTCHAR 0058
ENCODING 88
SWIDTH 600 0
DWIDTH 20 0
BBX 17 24 0 0
BITMAP
E00380
E00380
E00380
000000
E00380
E00380
E00380
0C3800
1C3800
1C3800
000000
01C000
01C000
01C000
0C3800
1C3800
0C3800
E00380
E00380
E00380
000000
E00380
E00380
E00380
ENDCHAR
STARTCHAR 0059
ENCODING 89
SWIDTH 600 0
DWIDTH 20 0
BBX 17 24 0 0
BITMAP
E00380
E00380
E00380
000000
E00380
E00380
E00380
0C3800
1C3800
1C3800
000000
01C000
01C000
01C000
01C000
01C000
01C000
01C000
01C000
01C000
000000
01C000
01C000
01C000
ENDCHAR
STARTCHAR 005A
ENCODING 90
SWIDTH 600 0
DWIDTH 20 0
BBX 17 24 0 0
BITMAP
EDFB80
FDFB80
FDFB80
000000
000380
000380
000380
003800
003800
003800
000000
01C000
01C000
01C000
0C0000
1C0000
0C0000
E00000
E00000
E00000
000000
FDFB80
FDFB80
EDFB80
ENDCHAR
STARTCHAR 005C
ENCODING 92
SWIDTH 510 0
DWIDTH 17 0
BBX 13 27 0 -3
BITMAP
E000
E000
E000
0000
E000
E000
E000
0C00
1C00
1C00
0000
1C00
1C00
0C00
01C0
01C0
01C0
01C0
01C0
01C0
0000
0038
0038
0038
0038
0038
0038
ENDCHAR
STARTCHAR 0061
ENCODING 97
SWIDTH 510 0
DWIDTH 17 0
BBX 13 17 0 0
BITMAP
0DC0
1DC0
1DC0
0000
0038
0038
0038
0DF8
1DF8
0DF8
E038
E038
E038
0000
1DF8
1DF8
0DF8
ENDCHAR
STARTCHAR 0062
ENCODING 98
SWIDTH 510 0
DWIDTH 17 0
BBX 13 24 0 0
BITMAP
E000
E000
E000
0000
E000
E000
E000
EDC0
FDC0
FDC0
0000
E038
E038
E038
E038
E038
E038
E038
E038
E038
0000
FDC0
FDC0
EDC0
ENDCHAR
STARTCHAR 0063
ENCODING 99
SWIDTH 510 0
DWIDTH 17 0
BBX 13 17 0 0
BITMAP
0DF8
1DF8
1DF8
0000
E000
E000
E000
E000
E000
E000
E000
E000
E000
0000
1DF8
1DF8
0DF8
ENDCHAR
STARTCHAR 0064
ENCODING 100
SWIDTH 510 0
DWIDTH 17 0
BBX 13 24 0 0
BITMAP
0038
0038
0038
0000
0038
0038
0038
0DF8
1DF8
1DF8
0000
E038
E038
E038
E038
E038
E038
E038
E038
E038
0000
1DF8
1DF8
0DF8
ENDCHAR
STARTCHAR 0065
ENCODING 101
SWIDTH 510 0
DWIDTH 17 0
BBX 13 17 0 0
BITMAP
0DC0
1DC0
1DC0
0000
E038
E038
E038
EDF8
FDF8
EDF8
E000
E000
E000
0000
1DF8
1DF8
0DF8
ENDCHAR
STARTCHAR 0066
ENCODING 102
SWIDTH 390 0
DWIDTH 13 0
BBX 10 24 0 0
BITMAP
0180
01C0
01C0
0000
1C00
1C00
0C00
ED80
FDC0
FDC0
0000
1C00
1C00
0C00
0C00
1C00
0C00
0C00
1C00
1C00
0000
1C00
1C00
0C00
ENDCHAR
STARTCHAR 0067
ENCODING 103
SWIDTH 510 0
DWIDTH 17 0
BBX 13 24 0 -7
BITMAP
0DF8
1DF8
1DF8
0000
E038
E038
E038
E038
E038
E038
0000
E038
E038
4010
1DF8
1DF8
0DF8
0038
0038
0038
0000
1DC0
1DC0
0DC0
ENDCHAR
STARTCHAR 0068
ENCODING 104
SWIDTH 510 0
DWIDTH 17 0
BBX 13 24 0 0
BITMAP
E000
E000
E000
0000
E000
E000
E000
EDC0
FDC0
FDC0
0000
E038
E038
E038
E038
E038
E038
E038
E038
E038
0000
E038
E038
E038
ENDCHAR
STARTCHAR 0069
ENCODING 105
SWIDTH 210 0
DWIDTH 7 0
BBX 3 24 0 0
BITMAP
E0
E0
E0
00
00
00
00
E0
E0
E0
00
E0
E0
E0
E0
E0
E0
E0
E0
E0
00
E0
E0
E0
ENDCHAR
STARTCHAR 006A
ENCODING 106
SWIDTH 390 0
DWIDTH 13 0
BBX 10 31 0 -7
BITMAP
0180
01C0
01C0
0000
0000
0000
0000
0180
01C0
01C0
0000
01C0
01C0
0180
0180
01C0
01C0
0000
01C0
01C0
0080
01C0
01C0
0180
0180
01C0
01C0
0000
FC00
FC00
EC00
ENDCHAR
STARTCHAR 006B
ENCODING 107
SWIDTH 510 0
DWIDTH 17 0
BBX 13 24 0 0
BITMAP
E000
E000
E000
0000
E000
E000
E000
E038
E038
E038
0000
E1C0
E1C0
E1C0
EC00
FC00
EC00
E1C0
E1C0
E1C0
0000
E038
E038
E038
ENDCHAR
STARTCHAR 006C
ENCODING 108
SWIDTH 300 0
DWIDTH 10 0
BBX 6 24 0 0
BITMAP
E0
E0
E0
00
E0
E0
E0
E0
E0
E0
00
E0
E0
E0
E0
E0
E0
E0
E0
E0
00
1C
1C
0C
ENDCHAR
STARTCHAR 006D
ENCODING 109
SWIDTH 600 0
DWIDTH 20 0
BBX 17 17 0 0
BITMAP
EC3800
FC3800
FC3800
000000
E1C380
E1C380
E1C380
E1C380
E1C380
E1C380
E1C380
E1C380
E1C380
000000
E1C380
E1C380
E1C380
ENDCHAR
STARTCHAR 006E
ENCODING 110
SWIDTH 510 0
DWIDTH 17 0
BBX 13 17 0 0
BITMAP
EDC0
FDC0
FDC0
0000
E038
E038
E038
E038
E038
E038
E038
E038
E038
0000
E038
E038
E038
ENDCHAR
STARTCHAR 006F
ENCODING 111
SWIDTH 510 0
DWIDTH 17 0
BBX 13 17 0 0
BITMAP
0DC0
1DC0
1DC0
0000
E038
E038
E038
E038
E038
E038
E038
E038
E038
0000
1DC0
1DC0
0DC0
ENDCHAR
STARTCHAR 0070
ENCODING 112
SWIDTH 510 0
DWIDTH 17 0
BBX 13 24 0 -7
BITMAP
EDC0
FDC0
FDC0
0000
E038
E038
E038
E038
E038
E038
0000
E038
E038
4010
FDC0
FDC0
EDC0
E000
E000
E000
0000
E000
E000
E000
ENDCHAR
STARTCHAR 0071
ENCODING 113
SWIDTH 510 0
DWIDTH 17 0
BBX 13 24 0 -7
BITMAP
0DF8
1DF8
1DF8
0000
E038
E038
E038
E038
E038
E038
0000
E038
E038
4010
1DF8
1DF8
0DF8
0038
0038
0038
0000
0038
0038
0038
ENDCHAR
STARTCHAR 0072
ENCODING 114
SWIDTH 390 0
DWIDTH 13 0
BBX 10 17 0 0
BITMAP
E180
E1C0
E1C0
0000
FC00
FC00
EC00
E000
E000
E000
E000
E000
E000
0000
E000
E000
E000
ENDCHAR
STARTCHAR 0073
ENCODING 115
SWIDTH 510 0
DWIDTH 17 0
BBX 13 17 0 0
BITMAP
0DF8
1DF8
1DF8
0000
E000
E000
E000
0DC0
1DC0
0DC0
0038
0038
0038
0000
FDC0
FDC0
EDC0
ENDCHAR
STARTCHAR 0074
ENCODING 116
SWIDTH 390 0
DWIDTH 13 0
BBX 10 24 0 0
BITMAP
0C00
1C00
1C00
0000
1C00
1C00
0C00
ED80
FDC0
FDC0
0000
1C00
1C00
0C00
0C00
1C00
0C00
0C00
1C00
1C00
0000
01C0
01C0
0180
ENDCHAR
STARTCHAR 0075
ENCODING 117
SWIDTH 510 0
DWIDTH 17 0
BBX 13 17 0 0
BITMAP
E038
E038
E038
0000
E038
E038
E038
E038
E038
E038
E038
E038
E038
0000
1DF8
1DF8
0DF8
ENDCHAR
STARTCHAR 0076
ENCODING 118
SWIDTH 600 0
DWIDTH 20 0
BBX 17 17 0 0
BITMAP
E00380
E00380
E00380
000000
E00380
E00380
E00380
E00380
E00380
E00380
0C3800
1C3800
1C3800
000000
01C000
01C000
01C000
ENDCHAR
STARTCHAR 0077
ENCODING 119
SWIDTH 600 0
DWIDTH 20 0
BBX 17 17 0 0
BITMAP
E00380
E00380
E00380
000000
E1C380
E1C380
E1C380
E1C380
E1C380
E1C380
E1C380
E1C380
E1C380
000000
1C3800
1C3800
0C3800
ENDCHAR
STARTCHAR 0078
ENCODING 120
SWIDTH 600 0
DWIDTH 20 0
BBX 17 17 0 0
BITMAP
E00380
E00380
E00380
000000
1C3800
1C3800
0C3800
01C000
01C000
01C000
0C3800
1C3800
1C3800
000000
E00380
E00380
E00380
ENDCHAR
STARTCHAR 0079
ENCODING 121
SWIDTH 510 0
DWIDTH 17 0
BBX 13 24 0 -7
BITMAP
E038
E038
E038
0000
E038
E038
E038
E038
E038
E038
0000
E038
E038
4010
1DF8
1DF8
0DF8
0038
0038
0038
0000
1DC0
1DC0
0DC0
ENDCHAR
STARTCHAR 007A
ENCODING 122
SWIDTH 510 0
DWIDTH 17 0
BBX 13 17 0 0
BITMAP
EDF8
FDF8
FDF8
0000
01C0
01C0
01C0
0C00
1C00
0C00
E000
E000
E000
0000
FDF8
FDF8
EDF8
ENDCHAR
ENDFONT
